<svg width="81" height="77" viewBox="0 0 81 77" fill="none" xmlns="http://www.w3.org/2000/svg">
<path d="M18.8072 0.205395C9.89268 2.1151 6.57385 13.9797 13.0571 20.6027C15.4498 23.0406 19.8492 24.6659 22.2804 24.0158C23.0522 23.8126 23.168 23.5688 23.0136 22.553C22.8593 21.3747 22.7821 21.3341 20.9683 21.3341C17.4179 21.3341 14.3692 19.1806 12.9028 15.5643C11.1662 11.3386 12.6712 6.58463 16.5303 4.06544C20.428 1.54625 25.8308 2.84648 28.3006 6.90968C29.2268 8.4537 29.4197 8.57559 30.0372 8.08801C30.4617 7.80359 30.9248 7.47853 31.1563 7.39726C31.7352 7.19411 30.5003 5.08124 28.8409 3.37469C26.2553 0.73361 22.2804 -0.525982 18.8072 0.205395Z" fill="white"/>
<path d="M57.6681 0.571106C55.6999 1.22122 54.2335 2.23702 52.4969 4.30925C51.5321 5.44695 50.7217 6.66591 50.7217 6.95033C50.7217 7.27539 51.1848 7.76298 51.725 8.00677C52.574 8.41309 52.767 8.37246 53.0757 7.84424C56.0472 2.23702 62.6463 1.09932 67.0071 5.40632C72.8729 11.1761 69.1296 21.3341 61.1798 21.3341C59.3661 21.3341 59.2889 21.3747 59.1345 22.5937C58.903 24.1377 59.3661 24.3408 62.106 24.0564C70.133 23.2032 74.7639 14.386 71.1363 6.78781C69.1296 2.52144 65.5406 0.205418 61.1413 0.246048C59.752 0.246048 58.2083 0.408577 57.6681 0.571106Z" fill="white"/>
<path d="M36.6356 7.6411C32.2362 9.18512 28.9174 12.2325 27.0264 16.4583C25.9459 18.8555 25.8301 19.465 25.8301 23.1625C25.8301 26.9413 25.9073 27.4289 27.065 29.8668C28.6472 33.2393 31.31 36.0429 34.5131 37.7088C36.8285 38.9278 37.2916 39.009 40.8806 39.009C44.4695 39.009 44.9326 38.9278 47.2481 37.7088C50.4511 36.0429 53.1139 33.2393 54.6962 29.8668C55.8539 27.4289 55.9311 26.9413 55.9311 23.1625C55.9311 19.465 55.8153 18.8555 54.7348 16.4583C53.2297 13.1264 50.6441 10.3634 47.3639 8.6569C45.2028 7.55984 44.3538 7.35668 41.498 7.23478C39.4913 7.15352 37.5617 7.31605 36.6356 7.6411Z" fill="white"/>
<path d="M10.7797 24.666C8.54141 25.8849 5.1454 29.7043 3.71754 32.5892C2.01953 35.9617 1.44066 39.2935 1.13194 47.4199L0.900391 54.2461H6.882H12.8636L13.674 53.0271L14.4844 51.8488L9.15887 51.7269L3.83331 51.605L3.98767 45.5102C4.18063 36.6931 5.49272 33.0362 9.8921 28.8511C12.0146 26.8195 12.2462 26.7788 14.0985 27.5915C16.221 28.526 20.2731 29.1355 22.3956 28.8511L24.4023 28.6073L24.0164 27.3071L23.6305 26.0068L21.2379 26.1287C18.9996 26.2506 16.5298 25.6411 12.9022 24.0565C12.5935 23.9346 11.6287 24.1784 10.7797 24.666Z" fill="white"/>
<path d="M66.9306 24.9098C65.3484 25.6818 63.9977 26.0068 61.6823 26.1287C58.6722 26.2913 58.5564 26.3319 58.1705 27.4696C57.746 28.5666 57.7846 28.6479 59.0967 28.8917C60.9876 29.2574 64.3836 28.8104 67.2008 27.754L69.5934 26.9007L71.3686 28.4448C73.6841 30.4357 75.575 33.1581 76.617 35.9617C77.273 37.7089 77.5046 39.6186 77.7747 44.6569C77.9291 48.2326 78.0063 51.3206 77.8905 51.4831C77.7747 51.6456 75.3435 51.8082 72.4877 51.8082H67.278L68.0884 53.0271L68.8988 54.2461H74.919H80.9006L80.6305 47.6231C80.5147 44.0068 80.206 39.9436 79.9744 38.6434C79.164 33.4425 76.0381 28.3635 71.9475 25.438C70.6354 24.5441 69.4391 23.7721 69.2847 23.8127C69.1689 23.8127 68.0884 24.3003 66.9306 24.9098Z" fill="white"/>
<path d="M27.1819 40.0655C23.9403 42.0564 19.9268 46.5666 18.0358 50.386C15.6432 55.2619 15.1801 57.6998 14.6784 67.9797L14.2539 77H40.8045H67.3166V74.237C67.278 72.7336 67.1236 68.5892 66.9306 65.0135C66.5447 57.5779 65.6185 53.7991 63.1873 49.4108C61.3735 46.1603 57.3601 41.8939 54.4657 40.0655L52.2275 38.684L50.7996 39.4154C44.625 42.544 38.7592 42.7878 32.8548 40.228C29.3816 38.684 29.4974 38.684 27.1819 40.0655Z" fill="white"/>
</svg>
