<svg width="81" height="77" viewBox="0 0 81 77" fill="none" xmlns="http://www.w3.org/2000/svg">
<path d="M28.9539 0.275238C24.0478 1.36153 20.392 4.37211 18.8576 8.5776C18.6493 9.13626 18.5356 10.3933 18.4788 13.0469L18.3841 16.7248L17.3044 17.6248C16.6035 18.199 16.1489 18.7267 15.9974 19.1457C15.7132 19.9371 15.6943 25.3996 15.9595 26.2221C16.2626 27.0911 17.2665 28.0688 18.3083 28.5033C18.9902 28.7981 19.5964 28.9067 20.8087 28.9533L22.3809 29.0154L22.5893 29.8999C23.4038 33.2519 25.4117 36.0142 28.5182 38.0626L30.1662 39.1334V40.1576C30.1662 40.7628 30.0715 41.306 29.9199 41.4612C29.6737 41.725 29.6358 41.7405 29.0296 41.4767C28.6508 41.3215 27.9689 41.2129 27.2869 41.2129C26.2262 41.2129 26.0368 41.2749 23.8584 42.3457C22.5893 42.982 21.0739 43.6027 20.5056 43.7424C11.7922 45.8684 4.97297 51.3154 2.16952 58.3918C1.08981 61.0765 0.900391 62.4421 0.900391 67.1597C0.900391 71.2255 0.919333 71.4738 1.31712 72.2808C2.20741 74.0344 3.87432 75.3845 6.05268 76.0518L7.15133 76.3932L31.3027 76.4397C44.5812 76.4708 55.7382 76.4397 56.0792 76.3932C57.3294 76.2069 57.8218 75.1982 57.0452 74.3913L56.6664 73.9878H52.3286H48.0098L47.8961 73.5688C47.8393 73.3205 46.9679 69.3478 45.964 64.7078L44.1455 56.2968L44.979 55.1329L45.7935 53.969H46.7406C48.4644 53.9535 48.9948 53.6276 53.6924 49.7015C58.6743 45.5425 57.8787 45.8529 60.8526 46.8771C63.1067 47.6375 63.8455 47.7306 64.4516 47.3271C64.982 46.9702 65.0767 46.1012 64.6411 45.6511C64.2622 45.2787 61.6482 44.3166 59.7729 43.8355C58.7879 43.5872 57.443 43.0596 56.0223 42.3457C54.6585 41.6784 53.5598 41.2284 53.1999 41.2284C52.0255 41.1818 51.2678 41.2749 50.6806 41.5543L50.0745 41.8336L49.885 41.3681C49.7714 41.1042 49.6767 40.499 49.6767 40.0179V39.1489L51.0026 38.3264C52.4801 37.3953 53.9197 36.1694 54.7153 35.1452L55.2457 34.4468L57.5188 34.3848C59.5456 34.3382 59.9244 34.2761 60.7768 33.9192C61.3072 33.6864 62.1407 33.1433 62.6142 32.7088C64.0539 31.4052 64.0728 31.2656 64.0728 24.9496V19.425L63.5803 18.6025C63.2583 18.1059 62.7658 17.6093 62.2922 17.3145L61.5156 16.8644L61.4209 13.0314C61.3262 9.29145 61.3072 9.18282 60.8147 8.31379C59.9055 6.71539 58.2954 5.75324 55.9276 5.34977L54.6964 5.14803L54.5827 4.35659C54.3365 2.72715 52.9537 1.17531 51.0974 0.414902L50.1502 0.0424652L40.2056 0.0114288C30.9807 -0.0196152 30.1662 -0.00409698 28.9539 0.275238ZM49.8661 2.78922C50.9079 3.28581 51.4762 4.07726 51.6467 5.24113C51.874 6.77747 53.0673 7.72409 54.7343 7.72409C55.7571 7.72409 57.2536 8.37586 57.8218 9.07419L58.2954 9.63286L58.3522 14.1487C58.4091 19.4715 58.5795 19.0681 55.9466 19.7974L54.2228 20.2785V17.5162C54.2228 14.3505 53.9955 13.3418 52.9916 12.1313C51.9498 10.9054 50.5101 10.1605 48.578 9.91219C47.3089 9.74149 46.1155 9.85011 43.6152 10.3467C41.2474 10.8278 38.3682 10.7967 35.9246 10.2691C33.4621 9.757 31.4542 9.74149 29.882 10.2226C28.3667 10.6881 26.9649 11.7744 26.2641 13.0469C25.7526 13.978 25.7337 14.1177 25.6579 17.1438L25.5821 20.2785L23.9342 19.8129C21.3391 19.0681 21.4527 19.3008 21.4527 14.6608C21.4527 11.821 21.5285 10.4553 21.7369 9.66389C22.7029 5.89291 26.6429 2.91338 31.3027 2.44782C31.9846 2.38574 36.2466 2.33919 40.7738 2.35471L49.0137 2.37022L49.8661 2.78922ZM35.0912 12.721C36.0572 12.9383 37.3832 13.0624 39.1637 13.109C41.8346 13.1866 42.365 13.14 46.0587 12.4572C47.8014 12.1468 48.9379 12.3641 49.9798 13.2176C50.4533 13.5901 50.8511 14.1177 50.9837 14.4746C51.0974 14.8315 51.1921 16.3368 51.1921 17.9663C51.1921 20.4647 51.2299 20.9148 51.552 21.3803C51.9876 22.0631 52.9347 22.5907 53.9008 22.7304L54.6396 22.8235L54.5448 26.0203C54.488 27.7739 54.3554 29.512 54.2228 29.8534L53.9955 30.5051L53.1242 30.0862C52.3286 29.7292 52.0066 29.6827 49.8661 29.6206C46.7975 29.5585 45.7178 29.7447 44.638 30.5672C43.2363 31.6225 42.9332 33.1433 43.8046 34.571C44.5433 35.7659 45.7556 36.278 47.8203 36.278H49.1842L48.5212 36.6815C47.5552 37.2712 45.5852 38.0626 44.0887 38.4506C42.3081 38.9161 38.9364 39.0403 37.0801 38.7144C32.5529 37.923 28.594 35.4555 26.7566 32.3208C25.6958 30.5051 25.4117 29.2326 25.298 25.8651L25.1844 22.8235L25.9231 22.7304C26.9081 22.5907 27.8173 22.1252 28.2719 21.5045C28.6129 21.0389 28.6508 20.713 28.6508 18.1059C28.6508 14.7695 28.8402 13.978 29.8631 13.1711C30.6208 12.5658 32.0036 12.2089 33.0075 12.3331C33.3674 12.3796 34.3145 12.5503 35.0912 12.721ZM19.9374 21.0389C20.0889 21.1475 20.6761 21.4269 21.2254 21.6286L22.2104 22.0166V24.2667V26.5014H21.2633C20.2025 26.5014 19.2933 26.191 18.9902 25.741C18.8766 25.5548 18.8008 24.2823 18.8008 22.6839V19.9371L19.2175 20.3871C19.4638 20.6354 19.7669 20.9303 19.9374 21.0389ZM61.042 22.7615C61.042 25.4772 61.0231 25.5703 60.5874 25.9738C60.2086 26.3462 59.9813 26.4083 58.8826 26.4704L57.6324 26.5324V24.2978V22.0476L58.8637 21.551C59.6971 21.2096 60.2465 20.8682 60.5306 20.5113C60.7579 20.2319 60.9663 19.9837 61.0042 19.9837C61.0231 19.9837 61.042 21.2406 61.042 22.7615ZM60.9663 30.1637C60.7958 30.6914 59.9055 31.4828 59.2046 31.7156C58.8637 31.8397 58.1628 31.9328 57.6135 31.9328C56.7611 31.9328 56.6664 31.9018 56.78 31.6535C56.8558 31.5138 57.0452 30.8466 57.2157 30.1793L57.5377 28.9843L58.769 28.9688C59.4509 28.9533 60.2086 28.9067 60.4738 28.8447C60.9094 28.7516 60.9473 28.7826 61.0042 29.2792C61.042 29.574 61.0231 29.962 60.9663 30.1637ZM51.7603 32.3984C52.2149 32.7708 52.2339 33.1278 51.8172 33.5157C51.552 33.764 51.1921 33.7951 49.1842 33.7951C46.9111 33.7951 46.8353 33.7795 46.5512 33.4226C46.305 33.1278 46.286 32.9726 46.4376 32.7243C46.7975 32.1967 47.2331 32.1035 49.3547 32.088C51.1352 32.088 51.4194 32.1191 51.7603 32.3984ZM35.0343 40.887C36.5686 41.2749 36.9664 41.306 39.9214 41.306C43.0848 41.3215 44.335 41.1663 46.3239 40.5456C46.5891 40.4525 46.6459 40.5145 46.6459 40.8715C46.6649 41.1198 46.8164 41.7095 47.0248 42.175C47.2331 42.6406 47.3847 43.0751 47.4036 43.1216C47.4036 43.2303 40.0351 47.0788 39.9025 47.0323C39.8457 47.0168 38.1409 46.1477 36.114 45.108C33.4242 43.7113 32.4392 43.1372 32.515 42.9509C32.5529 42.8268 32.7423 42.4388 32.8939 42.0974C33.0454 41.756 33.178 41.2439 33.1969 40.9646C33.1969 40.7008 33.2348 40.468 33.2916 40.468C33.3485 40.468 34.1251 40.6542 35.0343 40.887ZM32.4203 46.1632C35.0343 47.5134 37.1559 48.6617 37.1748 48.7238C37.1748 48.91 33.3295 51.4861 33.0264 51.4861C32.856 51.4861 30.9239 50.0118 28.7076 48.1962L24.6919 44.9063L25.7716 44.3321C26.3588 44.0062 27.0407 43.7424 27.268 43.7424C27.5143 43.7269 29.7684 44.7976 32.4203 46.1632ZM54.0334 44.301L55.1699 44.8907L51.1542 48.1806C48.9379 49.9963 46.9869 51.4861 46.8353 51.4861C46.6838 51.4861 45.6799 50.8809 44.6002 50.136C43.1795 49.1738 42.7059 48.7548 42.8575 48.6307C43.4068 48.1806 52.1013 43.7579 52.4801 43.7424C52.7074 43.7269 53.4083 43.9907 54.0334 44.301ZM26.1883 49.717C29.0107 52.0292 30.9239 53.488 31.3974 53.6742C31.8141 53.8294 32.5718 53.969 33.1212 53.969H34.0683L34.9017 55.1484L35.7162 56.3278L33.8788 64.8785C32.856 69.5961 31.9846 73.5688 31.9467 73.7085C31.852 73.9723 31.3595 73.9878 24.9381 73.9878H18.0431V71.0393C18.0431 68.1063 18.0431 68.0753 17.5696 67.7028C16.9824 67.2062 16.0542 67.1907 15.448 67.6563C15.0124 67.9822 15.0124 68.0598 15.0124 71.0083V74.0188L11.2807 73.9568L7.53018 73.9102L6.48835 73.4291C5.33288 72.9015 4.34788 71.8773 4.00692 70.8376C3.70384 69.9065 3.91221 63.0939 4.29105 61.6041C5.37076 57.352 7.70066 53.8914 11.4323 50.9584C13.4023 49.4066 15.0881 48.4134 17.3991 47.4513C18.5925 46.9547 21.1497 46.1322 21.6422 46.0701C21.699 46.0546 23.7447 47.6996 26.1883 49.717ZM41.6262 51.393C42.2513 51.812 42.8764 52.2465 43.028 52.3551C43.2363 52.5103 43.1416 52.7275 42.4786 53.6431L41.6641 54.7605L39.8835 54.7139L38.103 54.6674L37.3642 53.5811L36.6255 52.4948L38.2734 51.3774C39.6184 50.4774 39.9783 50.3067 40.2056 50.4463C40.3571 50.5394 41.0011 50.974 41.6262 51.393ZM43.0658 65.5613L44.8654 73.9102L40.0351 73.9568C37.3832 73.9723 35.1859 73.9568 35.129 73.9102C35.0343 73.8481 38.3871 57.9107 38.5955 57.4141C38.6523 57.29 39.1069 57.2279 39.9783 57.2279H41.2663L43.0658 65.5613Z" fill="white"/>
<path d="M65.4199 45.2105C61.2526 46.1303 57.6862 49.4355 55.871 54.0658C54.1581 58.3999 54.1197 63.498 55.7687 67.801C56.4718 69.625 57.0854 70.7164 58.2614 72.213C59.9104 74.3177 61.7639 75.6741 64.1671 76.5784C65.2409 76.9681 65.4838 76.9993 67.6825 76.9993C70.4819 77.0149 71.4023 76.781 73.4987 75.5338C77.2953 73.2888 79.8135 69.282 80.7467 64.0749C80.8361 63.5136 80.9001 62.2196 80.9001 60.8788C80.8873 58.9924 80.8234 58.3688 80.5549 57.1059C79.2127 50.901 75.1477 46.3018 70.0345 45.2105C68.7051 44.9298 66.6854 44.9298 65.4199 45.2105ZM69.7533 47.6893C74.0995 48.7339 77.4103 52.5224 78.5736 57.7919C78.9698 59.5848 78.9698 62.5938 78.5608 64.3867C77.9983 66.9591 76.9501 69.0638 75.3139 70.9658C71.0444 75.908 64.3972 75.8456 60.051 70.8099C56.7786 67.0058 55.7304 61.2062 57.4177 56.0614C58.4532 52.8809 60.6135 50.1059 63.1317 48.7183C65.2154 47.5646 67.6313 47.1905 69.7533 47.6893Z" fill="white"/>
<path d="M72.6816 54.1512C72.4544 54.2761 72.1068 54.6038 71.9197 54.8846C71.2379 55.9457 68.2168 62.2028 68.2168 62.5616C68.2168 63.0141 68.5109 63.5759 68.8451 63.7475C69.0322 63.8411 69.9279 63.9192 70.9572 63.9192H72.7618V65.1519C72.7618 66.3221 72.7886 66.4158 73.1227 66.7278C73.4035 66.9775 73.604 67.0399 73.9515 66.9775C74.6734 66.8371 74.8205 66.5562 74.8739 65.1987C74.9274 64.0284 74.9408 63.9972 75.3552 63.7631C75.9567 63.4198 76.1706 62.8269 75.9166 62.1247C75.7696 61.719 75.6091 61.5474 75.3017 61.485L74.9007 61.3758V58.4267C74.9007 55.3371 74.8472 54.9626 74.259 54.3541C73.8981 53.9796 73.1896 53.886 72.6816 54.1512ZM72.7217 61.3758C72.6816 61.407 72.3207 61.4226 71.9197 61.3914L71.1711 61.3446L71.933 59.7842L72.695 58.2238L72.7351 59.7686C72.7485 60.6112 72.7485 61.3289 72.7217 61.3758Z" fill="white"/>
<path d="M63.492 54.2304C62.31 54.7369 61.4007 56.0722 61.3877 57.346C61.3877 58.7581 63.1413 59.0343 63.4011 57.653C63.518 56.993 64.0376 56.5019 64.5961 56.5019C64.9598 56.5019 65.1417 56.6093 65.4404 57.0084C66.0899 57.8679 65.8821 58.4204 63.3102 62.5644C62.4658 63.915 61.7384 65.1889 61.6994 65.4038C61.5825 65.9103 61.8553 66.6163 62.245 66.8312C62.4528 66.9386 63.492 67 65.0767 67C67.3499 67 67.6227 66.9693 67.8955 66.7084C68.3241 66.294 68.3241 65.2503 67.8955 64.8359C67.6357 64.5903 67.3759 64.5443 66.1808 64.5443C64.5312 64.5443 64.5572 64.7592 65.934 62.5491C66.4406 61.7509 67.0641 60.5691 67.3369 59.9399C67.7526 58.9729 67.8175 58.666 67.8175 57.7911C67.7916 55.1359 65.6223 53.3402 63.492 54.2304Z" fill="white"/>
</svg>
