<svg width="81" height="77" viewBox="0 0 81 77" fill="none" xmlns="http://www.w3.org/2000/svg">
<path fill-rule="evenodd" clip-rule="evenodd" d="M43.7609 0.216371C42.2547 0.308971 39.04 0.330844 36.6171 0.264736C33.7538 0.186719 31.8738 0.23946 31.2466 0.415424C29.9555 0.777561 28.4112 2.16948 27.5278 3.76725C26.8977 4.90664 26.6734 5.1074 25.7721 5.33902C22.4066 6.20402 21.0624 10.0252 21.9525 16.1951C22.1702 17.7032 22.284 19.0431 22.2056 19.1724C22.1273 19.3017 21.8718 19.4077 21.6379 19.4077C20.3671 19.4077 20.1023 21.3027 20.899 24.6953C21.5303 27.3827 22.4023 29.108 23.3053 29.4558C23.8397 29.6617 24.068 29.9594 24.2616 30.7039C24.7134 32.439 26.3555 35.5696 27.6626 37.1868C31.1275 41.4746 36.5004 42.8019 41.1201 40.5115C44.035 39.0661 46.9694 35.3125 48.2982 31.3287C48.7463 29.9854 48.998 29.5642 49.4169 29.4568C50.522 29.1739 51.3722 27.3136 52.0842 23.6216C52.6828 20.5172 52.474 19.5846 51.1121 19.2793L50.3996 19.1196L50.5928 17.7445C50.6987 16.9884 50.7845 15.0572 50.783 13.4531C50.7807 11.0491 50.6811 10.2262 50.2161 8.77056C49.5307 6.6257 48.2853 4.74259 46.8166 3.6309L45.7207 2.80139L46.2886 1.7111C46.8561 0.621527 47.0149 -0.0730964 46.678 0.00613608C46.5796 0.0292253 45.2671 0.123771 43.7609 0.216371ZM16.2544 45.1655C11.2758 46.9901 6.54235 48.842 5.7351 49.2812C3.8177 50.3241 2.19677 51.9336 1.47929 53.5066C0.925645 54.7203 0.902547 54.9792 0.900404 60.0121C0.898975 62.8951 1.01471 65.8984 1.15735 66.6861C1.65432 69.4301 2.93377 71.1922 4.92213 71.8717C5.50674 72.0715 12.6384 72.1483 30.5853 72.1483H55.4389L54.9431 71.1565C53.622 68.5136 53.1412 63.8236 53.8849 60.837C55.1517 55.7503 59.268 51.3002 64.0862 49.8077C64.9842 49.5296 66.0022 49.2973 66.3484 49.2914C66.9416 49.2812 66.9252 49.2521 66.0701 48.7915C65.5705 48.5224 61.4449 46.9512 56.9022 45.2999C52.3594 43.6484 48.3549 42.1836 48.0034 42.0446L47.364 41.7918L45.2259 48.5244C44.05 52.2272 42.4202 57.3622 41.6044 59.9353C40.7884 62.5084 40.0509 64.6139 39.9649 64.6139C39.8792 64.6139 39.4508 61.8522 39.0126 58.4771L38.2164 52.3402L39.6789 49.3665C40.4833 47.7311 41.1415 46.2821 41.1415 46.1462C41.1415 45.9875 39.4434 45.8995 36.379 45.8995C33.3145 45.8995 31.6164 45.9875 31.6164 46.1462C31.6164 46.2821 32.272 47.7277 33.073 49.359C34.7499 52.7728 34.6954 51.7311 33.6176 59.7924C33.2631 62.4443 32.9047 64.6139 32.8213 64.6139C32.738 64.6139 31.0773 59.5557 29.1308 53.3731C27.1842 47.1908 25.5273 42.0684 25.4489 41.9904C25.3703 41.9121 21.2329 43.341 16.2544 45.1655ZM65.5776 52.2459C63.8545 52.6588 61.6109 53.9457 60.1009 55.3872C57.6261 57.7501 56.3021 60.9184 56.2959 64.4924C56.2795 73.8856 65.7977 79.8113 74.21 75.6448C75.9935 74.7613 78.6872 71.9826 79.5609 70.1247C80.2915 68.571 80.9004 66.0107 80.9004 64.4924C80.9004 62.9741 80.2915 60.4139 79.5609 58.8601C78.7246 57.0815 75.9962 54.2187 74.3047 53.3447C73.6194 52.9906 72.4447 52.5375 71.6949 52.3382C70.2068 51.9426 67.0428 51.8949 65.5776 52.2459ZM69.4786 55.2567C69.4786 55.7073 69.6048 55.8643 69.9668 55.8643C70.6143 55.8643 71.6177 56.4126 72.2652 57.1206C72.8829 57.7958 73.5997 59.4359 73.346 59.5943C73.2489 59.6549 72.5536 59.7827 71.8004 59.8782C70.6647 60.0223 70.4311 59.9898 70.4311 59.6865C70.4311 59.4855 70.2204 59.0626 69.9627 58.7471L69.4946 58.1733L69.4865 60.2668L69.4786 62.3604L70.5595 62.7819C72.8093 63.6588 73.8473 65.1034 73.8275 67.3302C73.8068 69.6309 72.2864 71.636 70.2466 72.0523C69.5198 72.2006 69.4786 72.2669 69.4786 73.287V74.3651L68.5856 74.2895C67.7239 74.2169 67.6927 74.1821 67.696 73.2967C67.6993 72.4312 67.6455 72.3644 66.7478 72.1177C65.4919 71.7726 63.9088 70.1478 63.5126 68.7975C63.3285 68.1707 63.2942 67.677 63.4259 67.554C63.5462 67.4418 64.1896 67.2887 64.8559 67.2133L66.0672 67.0767L66.4808 68.0338C66.7085 68.5603 67.0743 69.0889 67.2936 69.2087C67.6527 69.4046 67.6927 69.2155 67.6927 67.3239V65.2215L66.7402 64.7819C64.7606 63.8683 63.7538 62.4044 63.7305 60.4059C63.7036 58.0969 64.7739 56.5769 66.9209 55.8748C67.4134 55.7139 67.7553 55.4815 67.6808 55.3586C67.4295 54.9434 67.8355 54.6491 68.6592 54.6491C69.3746 54.6491 69.4786 54.7264 69.4786 55.2567ZM67.0974 58.7809C66.4892 59.4016 66.4675 60.751 67.0566 61.2952C67.2962 61.5163 67.5372 61.6974 67.5924 61.6976C67.6474 61.6976 67.6927 60.9323 67.6927 59.9968C67.6927 59.0613 67.6658 58.2958 67.6331 58.2953C67.6005 58.295 67.3593 58.5135 67.0974 58.7809ZM69.4786 67.6731V69.7772L70.0144 69.4175C71.4156 68.4766 71.3639 66.5989 69.9149 65.8073C69.5077 65.5849 69.4786 65.7086 69.4786 67.6731Z" fill="white"/>
</svg>
