<svg width="81" height="77" viewBox="0 0 81 77" fill="none" xmlns="http://www.w3.org/2000/svg">
<path d="M35.8107 0.309738C30.1709 0.99559 23.603 3.32747 18.927 6.27661C15.5359 8.40274 9.57485 14.1296 7.36176 17.3873C0.187046 27.8808 -1.09798 41.5977 3.93503 53.36C5.79117 57.6466 9.03943 62.3446 12.1449 65.2595L13.6084 66.5969L17.7133 62.6875L21.8183 58.7782L20.1406 57.1322L18.4629 55.4861L16.1071 57.7151C14.822 58.9497 13.6441 59.9441 13.5013 59.9441C13.0016 59.9441 9.28929 54.1144 8.21844 51.6454C6.96911 48.7305 5.75548 44.204 5.75548 42.3522V41.0834H8.78956H11.8236V38.8543V36.6253H8.75386H5.64839L5.86256 34.2935C6.36229 28.8753 9.43207 21.6396 12.9659 17.6617L13.894 16.5643L15.8929 18.4504L17.8918 20.3365L19.5695 18.6904L21.2828 17.0787L19.2482 15.124L17.2136 13.1351L19.7836 11.3176C24.6382 7.81977 30.5636 5.59076 36.7388 4.90491L38.9519 4.66487V7.27109V9.87731H41.2721H43.5923V7.13392V4.39053L45.1272 4.59628C50.4457 5.28213 56.5139 7.51114 60.7259 10.3574C61.5826 10.9404 62.475 11.5233 62.6891 11.6605C62.9033 11.7977 62.2608 12.655 61.0829 13.8209L59.1196 15.707L60.833 17.3187L62.5107 18.9648L64.4382 17.113C66.7227 14.9526 66.5799 14.9183 69.3641 18.4504C71.7914 21.5024 74.1116 26.2348 75.1824 30.247C75.6821 32.0988 76.0748 33.8477 76.0748 34.0877C76.0748 34.4649 75.3609 34.5678 73.0407 34.5678H70.0066V36.7968V38.9915L73.1478 39.0944L76.2533 39.1973L76.1105 41.4263C75.9677 44.3411 74.647 49.2449 73.2549 52.2284C72.0769 54.6974 69.3998 58.9154 68.9715 58.9154C68.8287 58.9154 67.7935 57.9895 66.6156 56.8578L64.5096 54.8003L62.7962 56.412L61.0829 58.0238L65.0807 61.8988L69.0786 65.7738L69.9352 64.9851C73.7546 61.5559 78.2879 53.5315 79.8585 47.4274C81.1792 42.2836 81.2506 35.0822 80.0369 30.1098C77.574 20.165 71.3987 11.6948 62.6177 6.20803C54.7648 1.30422 45.0558 -0.856201 35.8107 0.309738Z" fill="white"/>
<path d="M42.522 64.8137C39.8448 65.5338 38.3456 68.1057 39.3808 70.0604C39.702 70.6091 40.8086 71.4664 42.0222 72.0836C43.1645 72.6666 44.1282 73.3867 44.1282 73.6611C44.1282 74.4498 42.522 74.4498 40.9514 73.6611C39.4165 72.9409 38.9524 73.1124 38.9524 74.587C38.9524 74.9985 38.8454 75.5472 38.7383 75.8215C38.4884 76.5416 41.9865 77.2275 44.0568 76.9189C47.4122 76.3702 49.0899 72.8381 46.9125 70.8491C46.3413 70.369 45.2348 69.6489 44.4138 69.2374C42.4149 68.2772 42.3078 67.3513 44.2353 67.5913C44.9492 67.6942 45.913 67.8657 46.3413 68.0028C47.0195 68.2086 47.1623 68.1057 47.3408 67.2827C47.4836 66.734 47.662 66.0482 47.7334 65.7053C47.9119 65.1566 47.5193 65.0194 44.7707 64.6079C44.1996 64.505 43.2002 64.6079 42.522 64.8137Z" fill="white"/>
<path d="M20.5693 70.7462V76.7474H22.4612H24.3173V75.0327C24.3173 72.5637 25.2811 72.6666 26.5661 75.2385C27.4228 76.8845 27.6727 77.1246 28.3509 76.9531C28.7792 76.8502 29.4574 76.7474 29.8501 76.7474C31.5634 76.7131 31.6348 76.1987 30.2427 74.244L28.922 72.3922L29.8144 71.0891C30.8138 69.6831 31.028 67.6256 30.3498 66.3911C29.7073 65.2251 27.8511 64.745 24.0675 64.745H20.5693V70.7462ZM26.5304 67.9685C27.3157 69.1002 26.5304 70.5747 25.1383 70.5747C24.4244 70.5747 24.3173 70.4033 24.3173 69.1002C24.3173 68.2771 24.4244 67.4884 24.5672 67.3855C24.8884 67.0769 26.2092 67.4541 26.5304 67.9685Z" fill="white"/>
<path d="M33.0621 70.7462V76.7474H34.9539H36.81V70.7462V64.7451H34.9182H33.0264L33.0621 70.7462Z" fill="white"/>
<path d="M50.0176 70.7462V76.7474H51.8023H53.5514L53.6585 74.0726L53.7656 71.432L55.4075 74.1754L57.0138 76.9188L58.4416 76.8159C61.7256 76.6102 61.7256 76.7131 59.4411 73.5925C58.2988 72.0836 57.4065 70.6433 57.4065 70.4376C57.4065 70.2318 58.1561 68.9287 59.0484 67.557C59.9765 66.1853 60.7261 65.0194 60.7261 64.9165C60.7261 64.8136 59.8694 64.745 58.7986 64.745H56.871L55.586 66.974C53.7299 70.0946 53.4443 70.1632 53.7299 67.1798L53.9797 64.745H52.0165H50.0176V70.7462Z" fill="white"/>
<path d="M39.5255 35.63C39.035 35.7534 38.6672 35.8151 38.6672 35.6917C38.6672 35.5991 38.4527 35.7843 38.2075 36.1237C37.9622 36.4322 37.7477 36.6174 37.7477 36.494C37.7477 36.1854 35.9086 38.0985 35.9086 38.4379C35.9086 38.5614 35.5714 38.9316 35.1423 39.2094C34.7132 39.4871 34.468 39.8265 34.5293 39.9808C34.6212 40.1042 34.2841 40.5362 33.7937 40.9065C33.2726 41.2768 32.9354 41.7088 32.9967 41.8322C33.0887 41.9556 32.8128 42.3259 32.3837 42.6653C31.9546 43.0047 31.6174 43.4367 31.6174 43.591C31.6174 43.7762 31.2803 44.1773 30.8511 44.5167C30.422 44.8561 30.0848 45.2881 30.0848 45.4733C30.0848 45.6584 29.7477 46.0287 29.3186 46.3064C28.8894 46.5841 28.6442 46.9236 28.7055 47.0778C28.7975 47.2013 28.4603 47.6333 27.9699 48.0035C27.4488 48.3738 27.1117 48.8058 27.173 48.9292C27.2649 49.0527 26.9891 49.4229 26.5599 49.7624C26.1308 50.1018 25.7937 50.5338 25.7937 50.6881C25.7937 50.8732 25.4871 51.2744 25.1193 51.5829C24.7209 51.8915 24.2611 52.4469 24.0465 52.8172C23.74 53.3726 23.832 53.5886 24.7515 54.4835C25.3339 55.0389 25.7937 55.3475 25.7937 55.1315C25.7937 54.9155 25.9776 54.7612 26.2228 54.7612C26.468 54.7612 26.7132 54.6377 26.7745 54.5143C26.9278 54.1132 31.6174 50.9966 31.6174 51.2744C31.6174 51.3978 31.7707 51.2744 31.9546 50.9658C32.1385 50.6881 32.3837 50.5029 32.537 50.5955C32.6596 50.6881 32.8741 50.5338 32.9661 50.2561C33.058 50.0092 33.2726 49.8549 33.4258 49.9475C33.5791 50.0401 33.7937 49.9167 33.8856 49.6389C33.9776 49.3921 34.1921 49.2378 34.3454 49.3304C34.4986 49.4229 34.7132 49.2995 34.8052 49.0218C34.8971 48.775 35.1117 48.6207 35.2649 48.7132C35.4182 48.8058 35.6327 48.6824 35.7247 48.4047C35.8166 48.1578 36.0312 48.0035 36.1845 48.0961C36.3377 48.1887 36.5523 48.0653 36.6442 47.7875C36.7362 47.5407 36.9507 47.4173 37.1347 47.5098C37.2879 47.6024 37.4412 47.5407 37.4412 47.3864C37.4412 47.2013 37.6557 47.047 37.9009 47.047C38.1461 47.047 38.3607 46.8927 38.3607 46.7384C38.3607 46.5533 38.5753 46.4298 38.8205 46.4298C39.0657 46.4298 39.2802 46.2756 39.2802 46.1213C39.2802 45.9361 39.4948 45.8127 39.74 45.8127C39.9852 45.8127 40.1998 45.6893 40.1998 45.5659C40.1998 45.4424 40.6289 45.0721 41.1193 44.7944C42.8052 43.7762 44.6442 41.9556 44.7668 41.1842C45.1347 39.1476 44.7975 37.7899 43.6634 36.71C43.1423 36.1854 42.5906 35.7534 42.4373 35.7534C42.3147 35.7225 41.7937 35.63 41.2726 35.5374C40.7822 35.4448 39.9852 35.4757 39.5255 35.63Z" fill="white"/>
</svg>
