<svg width="81" height="77" viewBox="0 0 81 77" fill="none" xmlns="http://www.w3.org/2000/svg">
<path fill-rule="evenodd" clip-rule="evenodd" d="M26.6194 5.56559C20.1829 8.59978 14.5806 11.4737 14.1687 11.9521C13.0495 13.2531 13.5545 15.0275 15.3696 16.1736L16.9847 17.193L22.3688 14.7823C27.0199 12.6994 27.6421 12.2779 26.941 11.6821C26.24 11.0862 25.5339 11.2702 21.7495 13.0355C17.3155 15.1043 15.7546 15.2704 15.7546 13.6736C15.7546 13.0316 18.9135 11.3212 27.4712 7.32938L39.1872 1.86462L49.443 3.09423C55.0836 3.77071 60.995 4.32384 62.5793 4.32384H65.4593V9.90855V15.4933H62.9032C61.4029 15.4933 58.5652 14.8916 56.0325 14.0364C51.498 12.5052 47.9301 12.0944 48.6557 13.1865C48.9779 13.6722 48.9048 13.6722 48.2895 13.1865C47.8004 12.8005 45.7403 12.5766 42.6351 12.5722C37.3213 12.564 36.1004 12.2206 36.4152 10.8215C36.5986 10.0096 37.2716 9.89301 42.5083 9.76966C47.7113 9.64728 48.374 9.53413 48.2083 8.7984C48.0495 8.09327 47.1857 7.94516 42.5592 7.82812C37.7258 7.70623 36.9208 7.80773 35.5668 8.71342C33.7517 9.927 33.5249 12.0351 35.0818 13.2327C35.937 13.8907 37.4259 14.0364 43.287 14.0364C49.9389 14.0364 50.7433 14.1398 54.6042 15.4933C57.6037 16.5446 59.693 16.9501 62.1102 16.9501H65.4593V19.3263C65.4593 21.0449 65.7095 21.7841 66.3631 21.9973C68.0828 22.5582 79.4794 22.3212 80.1993 21.7093C80.9951 21.0328 81.1814 1.5883 80.4027 0.544688C80.0559 0.0799424 78.1345 -0.0434068 72.8413 0.0590605L65.7449 0.196007L65.5644 1.53148C65.3319 3.24672 65.249 3.24575 50.3194 1.41007C43.8035 0.60879 38.4382 -0.025439 38.3965 0.000784835C38.3554 0.0270087 33.0559 2.5309 26.6194 5.56559ZM78.5996 11.1226V20.3495H73.1721H67.7446V11.1226V1.8957H73.1721H78.5996V11.1226ZM71.3764 4.11842C70.64 5.07413 70.5417 5.67777 70.9611 6.66796C71.4353 7.78976 71.8106 7.9573 73.7268 7.90291C77.1719 7.8053 78.5093 5.70399 76.3143 3.83821C74.7061 2.47117 72.5522 2.59355 71.3764 4.11842ZM75.0631 5.65931C74.9569 6.12648 74.4918 6.50916 74.029 6.50916C73.5663 6.50916 73.1012 6.12648 72.995 5.65931C72.8601 5.06296 73.1686 4.80946 74.029 4.80946C74.8895 4.80946 75.198 5.06296 75.0631 5.65931ZM30.9883 9.58415C31.094 9.93963 31.1802 10.3349 31.1802 10.4626C31.1802 10.5899 31.4373 10.5593 31.7515 10.3942C32.0658 10.2291 32.3189 9.7245 32.3143 9.27286C32.3074 8.62407 32.2017 8.59056 31.8121 9.11358C31.5407 9.4778 31.2008 9.58706 31.0574 9.35639C30.914 9.12572 30.8826 9.22818 30.9883 9.58415ZM28.3236 10.2033C28.3236 10.5146 28.7441 10.6049 29.3234 10.4175C30.1067 10.164 30.1736 10.2218 29.6331 10.6846C29.0915 11.1488 28.7516 11.1401 28.0488 10.6448C27.2918 10.1106 27.2101 10.1358 27.5147 10.8113C27.7129 11.2494 28.1682 11.6048 28.5276 11.601C29.6817 11.5878 30.7672 10.7623 30.3627 10.2058C29.8542 9.50645 28.3236 9.50451 28.3236 10.2033ZM39.0661 15.8385C37.7629 16.0075 37.3916 16.43 36.6563 18.5804C35.4742 22.0361 33.7866 22.6208 29.8108 20.9507L27.013 19.775L24.1604 22.2003L21.3079 24.625L22.803 26.8997C24.1884 29.0063 24.2404 29.2924 23.5109 30.7774C22.8761 32.0692 22.1568 32.5402 19.8099 33.2026L16.8973 34.0253V37.3261C16.8973 41.0144 17.1675 41.3592 20.6857 42.1586C24.0193 42.9161 24.8797 44.7159 23.2252 47.4723C22.5728 48.5591 22.0391 49.7222 22.0391 50.0563C22.0391 50.8576 26.6417 54.8291 27.5701 54.8291C27.9677 54.8291 29.3926 54.376 30.7363 53.8219C34.2053 52.3922 35.9273 53.0249 37.263 56.2218C38.1497 58.3445 38.4862 58.6524 40.0911 58.8117C41.0932 58.9112 42.9534 58.9083 44.2245 58.8049C46.3841 58.6301 46.5938 58.4761 47.3948 56.4778C47.8667 55.3006 48.1495 53.8821 48.0238 53.326C47.837 52.5034 47.9444 52.4203 48.5986 52.8817C49.1465 53.2683 49.7212 53.2974 50.4022 52.9735C51.1312 52.6267 52.219 52.805 54.422 53.633L57.442 54.7683L60.0221 52.5753C61.4418 51.369 62.6027 50.0772 62.6027 49.7047C62.6027 49.3322 62.0697 48.0929 61.4178 46.9507C59.7335 43.9981 60.4705 42.5602 64.2092 41.5044C66.7133 40.7978 67.0658 40.5249 67.3418 39.0802C67.5126 38.1847 67.512 36.5627 67.3406 35.4754C67.0464 33.6115 66.8699 33.4537 64.2372 32.7107C62.3753 32.1847 61.1875 31.5029 60.6694 30.6628C59.9798 29.5444 60.0409 29.1316 61.2155 26.9769L62.5381 24.5502L61.4052 23.1977C60.1546 21.7049 57.3631 19.8639 56.3502 19.8639C55.9931 19.8639 54.6551 20.3175 53.3765 20.8721C50.1023 22.292 48.3009 21.6073 46.9577 18.4328C45.738 15.5491 44.4822 15.1363 39.0661 15.8385ZM45.3815 19.9474C46.1156 21.9642 46.4921 22.3085 48.7688 23.0477C51.2626 23.8572 51.3974 23.8509 53.9175 22.8102L56.5056 21.7418L58.2167 23.1958L59.9272 24.6502L58.76 26.9424C57.6191 29.1831 57.6162 29.2797 58.6303 31.2266C59.5016 32.9001 60.1306 33.3643 62.5633 34.1292C65.4279 35.03 65.4593 35.0626 65.4593 37.1255C65.4593 39.1899 65.4313 39.2191 62.6712 39.998C60.1843 40.7002 59.7775 41.0217 58.8971 42.9807C57.9265 45.1413 57.9322 45.2107 59.2525 47.3261L60.5939 49.476L58.7537 51.0402L56.9135 52.6044L54.3426 51.5428C51.7088 50.455 49.7326 50.5482 50.2685 51.7351C50.4336 52.1013 50.3416 52.4009 50.0634 52.4009C49.7852 52.4009 49.4595 52.1508 49.3401 51.8458C48.8505 50.5978 46.6658 52.4213 45.9076 54.7101C45.1518 56.993 45.1209 57.0158 42.5289 57.1596L39.9134 57.3048L38.8319 54.7732C37.8704 52.5228 37.4779 52.1576 35.2954 51.4841C32.9336 50.7556 32.7439 50.7707 30.2627 51.8896L27.6838 53.0526L25.8841 51.5229L24.085 49.9932L25.3745 47.7374C26.6417 45.5201 26.6462 45.4453 25.6516 43.4003C24.8049 41.6603 24.2633 41.2252 22.3391 40.74C19.1494 39.9354 18.6112 39.4429 18.6112 37.3261C18.6112 35.5453 18.7089 35.4545 21.4604 34.6775C23.9719 33.9685 24.4518 33.6047 25.5145 31.6035L26.7199 29.3336L25.3151 27.0536L23.9108 24.7736L25.4345 23.5328C27.2541 22.0507 27.7318 22.0191 30.4889 23.1997C32.5331 24.0748 32.6925 24.0762 34.9743 23.2419C37.0242 22.4926 37.4699 22.0444 38.3148 19.8819L39.2895 17.3862L41.9227 17.5324C44.5154 17.6762 44.5679 17.7131 45.3815 19.9474ZM40.3213 24.101C38.0777 24.3647 34.0368 25.7254 34.0368 26.2174C34.0368 26.4621 33.6912 26.6627 33.2684 26.6627C32.2229 26.6627 30.5026 28.3439 31.0363 28.8436C31.2728 29.0656 31.1591 29.0971 30.7837 28.9141C30.3575 28.7062 29.5017 29.4497 28.4985 30.9003C27.0816 32.9496 26.8953 33.698 26.8953 37.3465C26.8953 40.9678 27.0867 41.7511 28.455 43.73C31.5122 48.1497 36.1318 50.4336 42.0353 50.4429C53.5056 50.4613 60.6568 41.0911 56.2925 31.7618C55.9171 30.96 55.4909 30.5793 55.3441 30.9148C55.1978 31.2504 54.8431 31.4014 54.5557 31.2504C53.8278 30.8682 53.9095 31.4233 54.9533 33.9471C57.4088 39.8863 53.0965 46.4607 45.5083 48.3484C41.5268 49.3386 37.351 48.6417 33.9254 46.4146C29.7759 43.7164 29.9416 43.6596 41.9541 43.6596C47.9318 43.6596 52.9543 43.479 53.1154 43.2575C53.6216 42.5611 42.9722 27.1401 42.0752 27.2717C41.2468 27.3931 31.2596 41.45 31.2082 42.567C31.1528 43.765 30.253 43.1405 29.5068 41.3869C25.3351 31.5806 37.3779 22.4032 48.2375 27.1124C49.4955 27.6582 50.9718 27.9472 51.6882 27.7879C52.8749 27.5242 52.8423 27.4543 51.0586 26.4471C47.7816 24.5973 43.6949 23.7042 40.3213 24.101ZM51.7168 28.6848C51.0421 29.0913 51.0706 29.1336 51.8739 28.9145C52.415 28.7669 53.2502 28.9806 53.7307 29.389C54.2112 29.7974 54.6042 29.9052 54.6042 29.6284C54.6042 28.7752 52.6349 28.1322 51.7168 28.6848ZM52.6046 30.0621C52.7989 30.3292 53.0708 30.5477 53.2097 30.5477C53.3485 30.5477 53.4616 30.3292 53.4616 30.0621C53.4616 29.795 53.1891 29.5764 52.8566 29.5764C52.5241 29.5764 52.4104 29.795 52.6046 30.0621ZM46.1773 35.7968C48.2986 38.9452 50.0337 41.6744 50.0337 41.8618C50.0337 42.0493 46.4127 42.2027 41.9878 42.2027C37.3419 42.2027 34.022 42.0143 34.1322 41.7565C34.5727 40.725 41.7742 30.0834 42.0353 30.0786C42.1924 30.0752 44.056 32.6485 46.1773 35.7968ZM40.8926 35.404C40.8926 37.9938 41.0195 38.3177 42.0353 38.3177C43.0511 38.3177 43.1779 37.9938 43.1779 35.404C43.1779 32.8141 43.0511 32.4902 42.0353 32.4902C41.0195 32.4902 40.8926 32.8141 40.8926 35.404ZM40.8926 40.0174C40.8926 40.422 41.4005 40.7459 42.0353 40.7459C42.67 40.7459 43.1779 40.422 43.1779 40.0174C43.1779 39.6129 42.67 39.289 42.0353 39.289C41.4005 39.289 40.8926 39.6129 40.8926 40.0174ZM1.25346 55.5832C1.05922 56.0135 0.900391 60.8008 0.900391 66.2214C0.900391 73.5199 1.0855 76.2059 1.61454 76.5711C2.02303 76.8532 5.2624 77.0343 9.1845 76.9945L16.0403 76.9251L16.2208 75.5896C16.3865 74.3673 16.6042 74.2556 18.7918 74.2687C20.1064 74.2765 26.1241 74.8937 32.164 75.6401L43.1453 76.9969L48.8751 74.292C52.0259 72.8045 54.6042 71.3957 54.6042 71.1617C54.6042 70.9276 54.2489 70.9863 53.8147 71.2928C53.3799 71.5992 52.2876 71.8124 51.3866 71.7663C50.4068 71.7162 48.3215 72.3801 46.2002 73.4169L42.6517 75.1511L35.0595 74.192C30.8831 73.6646 26.7468 73.3504 25.867 73.4936C24.9871 73.6369 24.4033 73.5675 24.5684 73.3402C24.8735 72.9211 20.9576 72.3116 17.9599 72.3116H16.326V66.9697V61.6278H19.194C21.0405 61.6278 23.3292 62.0921 25.6213 62.9313C28.731 64.0705 30.1907 64.2696 37.1791 64.5095L45.1775 64.7844V65.9985C45.1775 67.2057 45.1438 67.2135 39.3215 67.3509C34.6333 67.4617 33.4655 67.6311 33.4655 68.2008C33.4655 68.7821 34.6007 68.9122 39.6614 68.9122C44.9381 68.9122 45.9973 68.7806 46.8029 68.024C48.2283 66.6856 47.9855 64.7708 46.243 63.6058C44.905 62.7108 43.9549 62.5991 37.6881 62.5991C31.1951 62.5991 30.2981 62.484 26.324 61.1422C23.5868 60.2181 20.9822 59.6853 19.1991 59.6853H16.3888L16.2146 57.3786L16.0403 55.0719L8.82342 54.9364C2.62006 54.8198 1.55683 54.9106 1.25346 55.5832ZM14.0407 65.9985V75.2254H8.61318H3.18566V65.9985V56.7716H8.61318H14.0407V65.9985ZM56.8895 63.3358C53.2759 65.0534 50.0806 66.5317 49.788 66.6215C49.4961 66.7119 49.4298 67.1683 49.6412 67.637C49.9783 68.3839 50.9352 68.0818 57.4243 65.1797C63.126 62.6292 64.9782 62.0022 65.5021 62.4451C66.731 63.4834 65.5895 64.4547 60.3586 66.8202C56.14 68.7282 55.1944 69.3614 55.1859 70.2832L55.1756 71.4118L58.4606 69.8495C60.2671 68.9904 63.0695 67.6598 64.6874 66.8925C67.6389 65.4929 68.3159 64.7752 68.3159 63.0449C68.3159 61.7701 66.3088 60.1666 64.7451 60.1923C64.0378 60.204 60.5031 61.6186 56.8895 63.3358ZM6.89923 68.9122C7.09347 69.1793 7.36542 69.3979 7.50425 69.3979C7.64308 69.3979 7.7562 69.1793 7.7562 68.9122C7.7562 68.6451 7.48368 68.4266 7.15118 68.4266C6.81867 68.4266 6.70498 68.6451 6.89923 68.9122ZM8.54976 70.2666C8.61146 72.0164 8.55947 72.0644 6.7564 71.9163C4.63909 71.7425 4.39914 72.2616 6.0194 73.5082C8.2601 75.2317 11.708 73.1804 10.9402 70.5808C10.7528 69.9456 10.1237 69.2094 9.54328 68.9453C8.60004 68.5164 8.49377 68.6578 8.54976 70.2666ZM5.12528 69.966C4.84762 70.3482 5.02359 70.4327 5.66289 70.2239C6.18565 70.0535 6.61357 70.0233 6.61357 70.1574C6.61357 70.2909 6.03482 70.5978 5.3281 70.8397C4.05692 71.2738 4.05635 71.2792 5.26697 71.3098C5.94056 71.3263 6.62956 71.0339 6.79867 70.6595C7.32886 69.4853 5.90399 68.8948 5.12528 69.966ZM52.319 70.6522C51.3586 71.1053 51.1952 71.3282 51.8208 71.3331C52.3321 71.337 53.0703 71.0126 53.4616 70.6119C54.2957 69.7572 54.21 69.7606 52.319 70.6522Z" fill="white"/>
</svg>
