<svg width="81" height="77" viewBox="0 0 81 77" fill="none" xmlns="http://www.w3.org/2000/svg">
<path fill-rule="evenodd" clip-rule="evenodd" d="M1.02229 17.5642C1.0279 34.1176 1.05675 35.1919 1.5259 36.2328C2.79817 39.0552 4.31329 39.5699 11.3511 39.5699H16.5123V47.9485V56.3268L25.1285 56.2064C33.2105 56.0937 33.8111 56.0514 34.8135 55.5254C36.6679 54.5523 36.9375 53.769 37.0417 49.051L37.1328 44.9384L33.3013 45.0133L29.4701 45.0881L29.3902 46.7815L29.3103 48.475L27.2528 48.3966L25.1953 48.3183L25.1211 44.617L25.0468 40.9158H33.203H41.3592V55.5862V70.2567L26.3308 70.2486L11.3025 70.2408L6.11295 65.1363C3.25877 62.3287 0.914349 60.0611 0.903128 60.0969C0.891907 60.133 0.916218 63.9508 0.957096 68.581L1.03137 77L30.3459 76.9257C59.5973 76.852 59.6635 76.8503 61.1581 76.2737C64.1066 75.1364 66.2498 73.3375 67.8705 70.64C69.3736 68.1385 69.7607 66.6187 69.6322 63.7261C69.5382 61.6111 69.388 60.9476 68.6268 59.2899C67.5555 56.9558 65.5894 54.9461 63.3812 53.9275L61.8907 53.24L63.2535 52.3151C65.996 50.4545 67.1467 47.9425 67.1312 43.8512C67.1224 41.508 67.0433 41.1082 66.2792 39.5443C64.6129 36.1343 62.0745 33.9972 58.0782 32.6398L55.92 31.9065L40.4909 31.8209L25.0618 31.7353V28.5194V25.3032H27.1991H29.3365V26.9183V28.5334H33.2105H37.0844V25.0205C37.0844 21.2194 36.9263 20.6242 35.572 19.3281C33.8824 17.7111 33.437 17.6398 24.4606 17.5469L16.2451 17.4619V24.6127V31.7636H13.0391H9.83303V23.0784V14.3932L13.1096 11.0998L16.3865 7.8063H41.4927H66.5988L69.8756 11.1342L73.1524 14.4621V19.3909V24.3193L69.3573 28.1762L65.5619 32.0327H71.7332H77.9046L79.3992 30.4849L80.8937 28.9371L80.8972 14.4686L80.9004 0H40.9584H1.01641L1.02229 17.5642ZM75.0416 35.1962C73.8038 35.832 73.1177 36.8495 72.9748 38.2606C72.5676 42.2875 77.7753 44.0698 80.0267 40.6741C82.1628 37.4525 78.4948 33.422 75.0416 35.1962ZM56.0089 41.0619C58.5818 41.8318 59.9793 43.6491 59.7277 45.8984C59.5476 47.507 58.4648 48.8874 56.7527 49.6906C55.5579 50.251 54.9897 50.3323 52.2464 50.3345L49.1071 50.3372V45.4919V40.6466H51.8638C53.5707 40.6466 55.1494 40.8049 56.0089 41.0619ZM73.1524 57.3061V70.7356L70.0132 73.8568L66.8739 76.9782L73.7536 76.9822L80.6332 76.9863V60.4315V43.8768H76.8928H73.1524V57.3061ZM57.7901 58.923C61.433 60.6224 62.2642 65.3457 59.4463 68.338C57.9227 69.956 56.9192 70.244 52.7807 70.2508L49.1071 70.2567V64.3347V58.4127L52.9143 58.4186C56.0487 58.4234 56.9104 58.5125 57.7901 58.923Z" fill="white"/>
</svg>
